<svg xmlns="http://www.w3.org/2000/svg" width="1200" height="630" viewBox="0 0 1200 630">
  <rect width="1200" height="630" fill="#F8F4F1"></rect>
  <defs>
    <pattern id="dots" width="30" height="30" patternUnits="userSpaceOnUse">
      <circle cx="1" cy="1" r="1" fill="#E5DFDA"></circle>
    </pattern>
    <marker id="arrowRed" markerWidth="8" markerHeight="8" refX="6" refY="3" orient="auto">
      <path d="M0,0 L0,6 L8,3 z" fill="#C8102E"></path>
    </marker>
    <marker id="arrowGray" markerWidth="8" markerHeight="8" refX="6" refY="3" orient="auto">
      <path d="M0,0 L0,6 L8,3 z" fill="#BBBBBB"></path>
    </marker>
  </defs>
  <rect width="1200" height="630" fill="url(#dots)"></rect>

  
  
  <line x1="300" y1="520" x2="950" y2="520" stroke="#CCCCCC" stroke-width="1.5"></line>
  <line x1="300" y1="130" x2="300" y2="520" stroke="#CCCCCC" stroke-width="1.5"></line>

  
  <line x1="300" y1="422" x2="950" y2="422" stroke="#E8E3DE" stroke-width="1" stroke-dasharray="4,4"></line>
  <line x1="300" y1="325" x2="950" y2="325" stroke="#E8E3DE" stroke-width="1" stroke-dasharray="4,4"></line>
  <line x1="300" y1="228" x2="950" y2="228" stroke="#E8E3DE" stroke-width="1" stroke-dasharray="4,4"></line>
  <line x1="300" y1="130" x2="950" y2="130" stroke="#E8E3DE" stroke-width="1" stroke-dasharray="4,4"></line>

  
  <polyline points="300,228 390,260 480,295 570,340 620,390 660,430 680,460 700,490" fill="none" stroke="#CCCCCC" stroke-width="2.5" stroke-linecap="round" stroke-linejoin="round" stroke-dasharray="6,3"></polyline>

  
  <line x1="686" y1="446" x2="714" y2="474" stroke="#C8102E" stroke-width="2.5" stroke-linecap="round"></line>
  <line x1="714" y1="446" x2="686" y2="474" stroke="#C8102E" stroke-width="2.5" stroke-linecap="round"></line>

  
  <polyline points="700,490 740,430 800,350 870,260 940,175" fill="none" stroke="#C8102E" stroke-width="3" stroke-linecap="round" stroke-linejoin="round" marker-end="url(#arrowRed)"></polyline>

  
  <line x1="700" y1="130" x2="700" y2="520" stroke="#C8102E" stroke-width="1" stroke-dasharray="3,4" opacity="0.4"></line>
  <text x="700" y="118" text-anchor="middle" font-family="Helvetica Neue, Helvetica, Arial, sans-serif" font-size="10" font-weight="600" fill="#C8102E" letter-spacing="2">FIX APPLIED</text>

  
  <text x="72" y="290" font-family="Helvetica Neue, Helvetica, Arial, sans-serif" font-size="11" font-weight="500" fill="#C8102E" letter-spacing="3">GOOGLE ADS</text>
  <text x="72" y="322" font-family="Helvetica Neue, Helvetica, Arial, sans-serif" font-size="32" font-weight="700" fill="#1C1C1C" letter-spacing="-0.5">Why Ads</text>
  <text x="72" y="358" font-family="Helvetica Neue, Helvetica, Arial, sans-serif" font-size="32" font-weight="700" fill="#1C1C1C" letter-spacing="-0.5">Don&#39;t</text>
  <text x="72" y="394" font-family="Helvetica Neue, Helvetica, Arial, sans-serif" font-size="32" font-weight="300" fill="#1C1C1C" letter-spacing="-0.5">Convert</text>
  <line x1="72" y1="420" x2="180" y2="420" stroke="#C8102E" stroke-width="1.5"></line>

  <text x="72" y="570" font-family="Helvetica Neue, Helvetica, Arial, sans-serif" font-size="13" font-weight="400" fill="#AAAAAA" letter-spacing="1">floatin.in</text>
</svg>