<svg xmlns="http://www.w3.org/2000/svg" width="1200" height="630" viewBox="0 0 1200 630">
  <rect width="1200" height="630" fill="#1C1C1C"></rect>
  <defs>
    <pattern id="wgrid" width="24" height="24" patternUnits="userSpaceOnUse">
      <path d="M 24 0 L 0 0 0 24" fill="none" stroke="#252525" stroke-width="1"></path>
    </pattern>
  </defs>
  <rect width="1200" height="630" fill="url(#wgrid)"></rect>

  
  
  <rect x="520" y="110" width="380" height="62" rx="14" fill="#2A2A2A"></rect>
  <rect x="520" y="110" width="14" height="14" fill="#2A2A2A"></rect>
  <polygon points="520,110 506,124 520,124" fill="#2A2A2A"></polygon>
  <line x1="544" y1="134" x2="700" y2="134" stroke="#3A3A3A" stroke-width="2" stroke-linecap="round"></line>
  <line x1="544" y1="152" x2="650" y2="152" stroke="#3A3A3A" stroke-width="2" stroke-linecap="round"></line>
  <text x="872" y="178" text-anchor="end" font-family="Helvetica Neue, Helvetica, Arial, sans-serif" font-size="10" fill="#444" letter-spacing="0.5">9:41 AM ✓✓</text>

  
  <rect x="530" y="200" width="360" height="62" rx="14" fill="#C8102E"></rect>
  <rect x="876" y="200" width="14" height="14" fill="#C8102E"></rect>
  <polygon points="890,200 904,214 890,214" fill="#C8102E"></polygon>
  <line x1="554" y1="224" x2="710" y2="224" stroke="rgba(255,255,255,0.4)" stroke-width="2" stroke-linecap="round"></line>
  <line x1="554" y1="242" x2="660" y2="242" stroke="rgba(255,255,255,0.4)" stroke-width="2" stroke-linecap="round"></line>
  <text x="876" y="268" text-anchor="end" font-family="Helvetica Neue, Helvetica, Arial, sans-serif" font-size="10" fill="rgba(255,255,255,0.4)" letter-spacing="0.5">9:42 AM ✓✓</text>

  
  <rect x="520" y="290" width="300" height="62" rx="14" fill="#2A2A2A"></rect>
  <rect x="520" y="290" width="14" height="14" fill="#2A2A2A"></rect>
  <polygon points="520,290 506,304 520,304" fill="#2A2A2A"></polygon>
  <line x1="544" y1="314" x2="660" y2="314" stroke="#3A3A3A" stroke-width="2" stroke-linecap="round"></line>
  <line x1="544" y1="332" x2="600" y2="332" stroke="#3A3A3A" stroke-width="2" stroke-linecap="round"></line>
  <text x="792" y="358" text-anchor="end" font-family="Helvetica Neue, Helvetica, Arial, sans-serif" font-size="10" fill="#444" letter-spacing="0.5">9:43 AM ✓✓</text>

  
  <rect x="540" y="378" width="350" height="62" rx="14" fill="#C8102E"></rect>
  <rect x="876" y="378" width="14" height="14" fill="#C8102E"></rect>
  <polygon points="890,378 904,392 890,392" fill="#C8102E"></polygon>
  <line x1="564" y1="402" x2="700" y2="402" stroke="rgba(255,255,255,0.4)" stroke-width="2" stroke-linecap="round"></line>
  <line x1="564" y1="420" x2="640" y2="420" stroke="rgba(255,255,255,0.4)" stroke-width="2" stroke-linecap="round"></line>
  <text x="872" y="446" text-anchor="end" font-family="Helvetica Neue, Helvetica, Arial, sans-serif" font-size="10" fill="rgba(255,255,255,0.4)" letter-spacing="0.5">9:44 AM ✓✓</text>

  
  <text x="520" y="510" font-family="Helvetica Neue, Helvetica, Arial, sans-serif" font-size="12" fill="#444" letter-spacing="2">500M+ USERS IN INDIA</text>

  
  <text x="72" y="260" font-family="Helvetica Neue, Helvetica, Arial, sans-serif" font-size="11" font-weight="600" fill="#C8102E" letter-spacing="3">WHATSAPP MARKETING</text>
  <text x="72" y="298" font-family="Helvetica Neue, Helvetica, Arial, sans-serif" font-size="34" font-weight="700" fill="#F8F4F1" letter-spacing="-0.5">Complete</text>
  <text x="72" y="338" font-family="Helvetica Neue, Helvetica, Arial, sans-serif" font-size="34" font-weight="700" fill="#F8F4F1" letter-spacing="-0.5">Guide for</text>
  <text x="72" y="378" font-family="Helvetica Neue, Helvetica, Arial, sans-serif" font-size="34" font-weight="300" fill="#F8F4F1" letter-spacing="-0.5">Indian Brands</text>
  <line x1="72" y1="404" x2="200" y2="404" stroke="#C8102E" stroke-width="1.5"></line>

  
  <text x="72" y="450" font-family="Helvetica Neue, Helvetica, Arial, sans-serif" font-size="13" fill="#555" letter-spacing="1">3× conversion vs email</text>

  <text x="72" y="570" font-family="Helvetica Neue, Helvetica, Arial, sans-serif" font-size="13" font-weight="400" fill="#444" letter-spacing="1">floatin.in</text>
</svg>